<svg width="849" height="656" viewBox="0 0 849 656" fill="none" xmlns="http://www.w3.org/2000/svg">
<g filter="url(#filter0_f)">
<circle cx="531" cy="418" r="94" fill="#D727DB" fill-opacity="0.3"/>
</g>
<g filter="url(#filter1_f)">
<circle cx="371.5" cy="148.5" r="123.5" fill="#0038FF" fill-opacity="0.3"/>
</g>
<g filter="url(#filter2_f)">
<circle cx="156" cy="533" r="38" fill="#D727DB" fill-opacity="0.3"/>
</g>
<g filter="url(#filter3_f)">
<circle cx="795.5" cy="417.5" r="48.5" fill="#0038FF" fill-opacity="0.3"/>
</g>
<rect x="100" y="170" width="296" height="97" rx="10" fill="white" fill-opacity="0.3"/>
<rect x="100.5" y="170.5" width="295" height="96" rx="9.5" stroke="white" stroke-opacity="0.18"/>
<rect x="435" y="121" width="219" height="49" rx="10" fill="white" fill-opacity="0.3"/>
<rect x="435.5" y="121.5" width="218" height="48" rx="9.5" stroke="white" stroke-opacity="0.18"/>
<g filter="url(#filter4_b)">
<rect x="196" y="219" width="592" height="194" rx="10" fill="white" fill-opacity="0.3"/>
<rect x="196.5" y="219.5" width="591" height="193" rx="9.5" stroke="white" stroke-opacity="0.18"/>
</g>
<g filter="url(#filter5_b)">
<rect x="156" y="533" width="375" height="123" rx="10" fill="white" fill-opacity="0.3"/>
<rect x="156.5" y="533.5" width="374" height="122" rx="9.5" stroke="white" stroke-opacity="0.18"/>
</g>
<path d="M138.094 232H142.185L143.246 225.506H146.825L147.503 221.415H143.923L144.741 216.403H148.321L149.011 212.312H145.419L146.48 205.818H142.389L141.328 212.312H136.214L137.276 205.818H133.185L132.124 212.312H128.557L127.866 216.403H131.446L130.628 221.415H127.048L126.371 225.506H129.95L128.889 232H132.98L134.041 225.506H139.155L138.094 232ZM134.719 221.415L135.537 216.403H140.651L139.832 221.415H134.719ZM165.858 213.348H171.163C171.086 208.682 167.251 205.46 161.422 205.46C155.681 205.46 151.475 208.631 151.501 213.386C151.488 217.247 154.211 219.459 158.635 220.52L161.485 221.236C164.336 221.926 165.922 222.744 165.934 224.509C165.922 226.426 164.106 227.73 161.294 227.73C158.417 227.73 156.346 226.401 156.167 223.78H150.811C150.951 229.443 155.004 232.371 161.358 232.371C167.75 232.371 171.508 229.315 171.521 224.521C171.508 220.162 168.223 217.848 163.672 216.825L161.319 216.263C159.044 215.739 157.139 214.895 157.177 213.016C157.177 211.328 158.673 210.088 161.383 210.088C164.029 210.088 165.653 211.29 165.858 213.348ZM174.247 210.382H182.263V232H187.734V210.382H195.75V205.818H174.247V210.382ZM200.57 232L202.513 226.03H211.96L213.903 232H219.835L210.81 205.818H203.676L194.638 232H200.57ZM203.919 221.709L207.141 211.801H207.345L210.567 221.709H203.919ZM222.987 232H228.522V222.719H232.562L237.522 232H243.633L238.072 221.824C241.05 220.545 242.7 217.95 242.7 214.371C242.7 209.168 239.261 205.818 233.316 205.818H222.987V232ZM228.522 218.27V210.344H232.255C235.451 210.344 236.998 211.763 236.998 214.371C236.998 216.966 235.451 218.27 232.281 218.27H228.522ZM258.744 219.088H246.803V223.409H258.744V219.088ZM268.642 232H274.037L279.01 214.882H279.214L284.2 232H289.595L297.086 205.818H291.039L286.706 224.048H286.475L281.707 205.818H276.529L271.748 224.01H271.531L267.197 205.818H261.15L268.642 232ZM301.89 232L303.833 226.03H313.281L315.224 232H321.156L312.13 205.818H304.996L295.958 232H301.89ZM305.239 221.709L308.461 211.801H308.665L311.887 221.709H305.239ZM324.307 232H329.842V222.719H333.882L338.842 232H344.953L339.392 221.824C342.371 220.545 344.02 217.95 344.02 214.371C344.02 209.168 340.581 205.818 334.636 205.818H324.307V232ZM329.842 218.27V210.344H333.575C336.771 210.344 338.318 211.763 338.318 214.371C338.318 216.966 336.771 218.27 333.601 218.27H329.842ZM362.135 213.348H367.44C367.364 208.682 363.528 205.46 357.699 205.46C351.959 205.46 347.753 208.631 347.778 213.386C347.766 217.247 350.489 219.459 354.912 220.52L357.763 221.236C360.614 221.926 362.199 222.744 362.212 224.509C362.199 226.426 360.384 227.73 357.571 227.73C354.695 227.73 352.624 226.401 352.445 223.78H347.088C347.229 229.443 351.281 232.371 357.635 232.371C364.027 232.371 367.786 229.315 367.798 224.521C367.786 220.162 364.5 217.848 359.949 216.825L357.597 216.263C355.321 215.739 353.416 214.895 353.455 213.016C353.455 211.328 354.95 210.088 357.661 210.088C360.307 210.088 361.93 211.29 362.135 213.348Z" fill="white"/>
<path d="M457.047 152H459.092L459.623 148.753H461.413L461.751 146.707H459.962L460.371 144.202H462.161L462.506 142.156H460.71L461.24 138.909H459.195L458.664 142.156H456.107L456.638 138.909H454.592L454.062 142.156H452.278L451.933 144.202H453.723L453.314 146.707H451.524L451.185 148.753H452.975L452.445 152H454.49L455.021 148.753H457.577L457.047 152ZM455.359 146.707L455.768 144.202H458.325L457.916 146.707H455.359ZM466.084 152L467.055 149.015H471.779L472.751 152H475.716L471.204 138.909H467.637L463.118 152H466.084ZM467.758 146.854L469.369 141.901H469.471L471.082 146.854H467.758ZM488.242 138.909H485.487V147.142H485.372L479.721 138.909H477.292V152H480.06V143.761H480.156L485.851 152H488.242V138.909ZM493.296 138.909H490.528V152H493.296V138.909ZM495.573 138.909V152H498.258V143.447H498.367L501.754 151.936H503.583L506.97 143.479H507.079V152H509.764V138.909H506.35L502.745 147.705H502.592L498.987 138.909H495.573ZM514.3 152L515.272 149.015H519.996L520.967 152H523.933L519.42 138.909H515.854L511.335 152H514.3ZM515.975 146.854L517.586 141.901H517.688L519.299 146.854H515.975ZM525.509 152H533.889V149.718H528.277V138.909H525.509V152ZM540.874 145.544H534.904V147.705H540.874V145.544ZM554.796 143.492C554.431 140.469 552.143 138.73 549.113 138.73C545.655 138.73 543.015 141.172 543.015 145.455C543.015 149.724 545.61 152.179 549.113 152.179C552.469 152.179 554.495 149.948 554.796 147.538L551.996 147.526C551.734 148.925 550.634 149.731 549.158 149.731C547.17 149.731 545.821 148.254 545.821 145.455C545.821 142.732 547.151 141.178 549.177 141.178C550.692 141.178 551.785 142.054 551.996 143.492H554.796ZM556.78 152H559.548V147.359H561.568L564.048 152H567.104L564.323 146.912C565.812 146.273 566.637 144.975 566.637 143.185C566.637 140.584 564.917 138.909 561.945 138.909H556.78V152ZM559.548 145.135V141.172H561.415C563.013 141.172 563.786 141.881 563.786 143.185C563.786 144.483 563.013 145.135 561.427 145.135H559.548ZM580.623 145.455C580.623 141.172 577.964 138.73 574.493 138.73C571.003 138.73 568.363 141.172 568.363 145.455C568.363 149.718 571.003 152.179 574.493 152.179C577.964 152.179 580.623 149.737 580.623 145.455ZM577.817 145.455C577.817 148.229 576.5 149.731 574.493 149.731C572.479 149.731 571.169 148.229 571.169 145.455C571.169 142.68 572.479 141.178 574.493 141.178C576.5 141.178 577.817 142.68 577.817 145.455ZM589.775 142.674H592.427C592.389 140.341 590.471 138.73 587.556 138.73C584.686 138.73 582.583 140.315 582.596 142.693C582.59 144.624 583.951 145.729 586.163 146.26L587.588 146.618C589.014 146.963 589.806 147.372 589.813 148.254C589.806 149.213 588.899 149.865 587.493 149.865C586.054 149.865 585.019 149.2 584.929 147.89H582.251C582.321 150.722 584.348 152.185 587.525 152.185C590.721 152.185 592.6 150.658 592.606 148.261C592.6 146.081 590.957 144.924 588.681 144.413L587.505 144.131C586.368 143.869 585.415 143.447 585.434 142.508C585.434 141.664 586.182 141.044 587.537 141.044C588.86 141.044 589.672 141.645 589.775 142.674ZM601.569 142.674H604.222C604.184 140.341 602.266 138.73 599.351 138.73C596.481 138.73 594.378 140.315 594.391 142.693C594.385 144.624 595.746 145.729 597.958 146.26L599.383 146.618C600.809 146.963 601.601 147.372 601.608 148.254C601.601 149.213 600.694 149.865 599.287 149.865C597.849 149.865 596.814 149.2 596.724 147.89H594.046C594.116 150.722 596.143 152.185 599.319 152.185C602.515 152.185 604.395 150.658 604.401 148.261C604.395 146.081 602.752 144.924 600.476 144.413L599.3 144.131C598.162 143.869 597.21 143.447 597.229 142.508C597.229 141.664 597.977 141.044 599.332 141.044C600.655 141.044 601.467 141.645 601.569 142.674ZM609.031 138.909H606.263V152H609.031V138.909ZM622.257 138.909H619.502V147.142H619.387L613.737 138.909H611.308V152H614.075V143.761H614.171L619.867 152H622.257V138.909ZM633.224 143.141H636.037C635.679 140.552 633.397 138.73 630.438 138.73C626.979 138.73 624.314 141.223 624.314 145.467C624.314 149.609 626.807 152.179 630.495 152.179C633.8 152.179 636.158 150.089 636.158 146.643V144.994H630.68V147.078H633.493C633.455 148.702 632.349 149.731 630.508 149.731C628.43 149.731 627.12 148.178 627.12 145.442C627.12 142.719 628.482 141.178 630.482 141.178C631.908 141.178 632.873 141.913 633.224 143.141Z" fill="white"/>
<path d="M250.188 342H258.369L260.491 329.011H267.651L269.006 320.83H261.847L263.483 310.807H270.642L272.023 302.625H264.838L266.96 289.636H258.778L256.656 302.625H246.429L248.551 289.636H240.369L238.247 302.625H231.114L229.733 310.807H236.892L235.256 320.83H228.097L226.741 329.011H233.901L231.778 342H239.96L242.082 329.011H252.31L250.188 342ZM243.438 320.83L245.074 310.807H255.301L253.665 320.83H243.438ZM312.031 306.562H323.281C321.849 296.207 312.721 288.92 300.883 288.92C287.05 288.92 276.388 298.892 276.388 315.869C276.388 332.438 286.36 342.716 301.113 342.716C314.332 342.716 323.766 334.355 323.766 320.574V313.977H301.854V322.312H313.104C312.951 328.807 308.528 332.923 301.164 332.923C292.854 332.923 287.613 326.71 287.613 315.767C287.613 304.875 293.059 298.713 301.062 298.713C306.763 298.713 310.624 301.653 312.031 306.562ZM339.491 342L343.377 330.06H362.272L366.158 342H378.022L359.971 289.636H345.704L327.627 342H339.491ZM346.19 321.418L352.633 301.602H353.042L359.485 321.418H346.19ZM384.325 289.636V342H395.063V307.79H395.498L409.049 341.744H416.362L429.913 307.918H430.347V342H441.086V289.636H427.433L413.012 324.818H412.398L397.978 289.636H384.325ZM461.278 289.636H450.207V342H461.278V289.636ZM514.185 289.636H503.165V322.568H502.705L480.103 289.636H470.387V342H481.458V309.043H481.842L504.623 342H514.185V289.636ZM558.054 306.562H569.304C567.872 296.207 558.744 288.92 546.906 288.92C533.074 288.92 522.412 298.892 522.412 315.869C522.412 332.438 532.384 342.716 547.136 342.716C560.355 342.716 569.79 334.355 569.79 320.574V313.977H547.878V322.312H559.128C558.974 328.807 554.551 332.923 547.188 332.923C538.878 332.923 533.636 326.71 533.636 315.767C533.636 304.875 539.082 298.713 547.085 298.713C552.787 298.713 556.648 301.653 558.054 306.562ZM602.37 316.176H578.489V324.818H602.37V316.176ZM620.881 342L624.768 330.06H643.663L647.549 342H659.413L641.362 289.636H627.094L609.018 342H620.881ZM627.58 321.418L634.023 301.602H634.433L640.876 321.418H627.58ZM665.715 342H676.786V323.438H684.866L694.786 342H707.008L695.886 321.648C701.843 319.091 705.141 313.901 705.141 306.741C705.141 296.335 698.263 289.636 686.374 289.636H665.715V342ZM676.786 314.54V298.688H684.252C690.644 298.688 693.738 301.526 693.738 306.741C693.738 311.932 690.644 314.54 684.303 314.54H676.786ZM710.971 298.764H727.002V342H737.945V298.764H753.977V289.636H710.971V298.764Z" fill="white"/>
<g filter="url(#filter6_b)">
<circle cx="78" cy="133" r="78" fill="#D727DB" fill-opacity="0.3"/>
</g>
<defs>
<filter id="filter0_f" x="412" y="299" width="238" height="238" filterUnits="userSpaceOnUse" color-interpolation-filters="sRGB">
<feFlood flood-opacity="0" result="BackgroundImageFix"/>
<feBlend mode="normal" in="SourceGraphic" in2="BackgroundImageFix" result="shape"/>
<feGaussianBlur stdDeviation="12.5" result="effect1_foregroundBlur"/>
</filter>
<filter id="filter1_f" x="223" y="0" width="297" height="297" filterUnits="userSpaceOnUse" color-interpolation-filters="sRGB">
<feFlood flood-opacity="0" result="BackgroundImageFix"/>
<feBlend mode="normal" in="SourceGraphic" in2="BackgroundImageFix" result="shape"/>
<feGaussianBlur stdDeviation="12.5" result="effect1_foregroundBlur"/>
</filter>
<filter id="filter2_f" x="113" y="490" width="86" height="86" filterUnits="userSpaceOnUse" color-interpolation-filters="sRGB">
<feFlood flood-opacity="0" result="BackgroundImageFix"/>
<feBlend mode="normal" in="SourceGraphic" in2="BackgroundImageFix" result="shape"/>
<feGaussianBlur stdDeviation="2.5" result="effect1_foregroundBlur"/>
</filter>
<filter id="filter3_f" x="742" y="364" width="107" height="107" filterUnits="userSpaceOnUse" color-interpolation-filters="sRGB">
<feFlood flood-opacity="0" result="BackgroundImageFix"/>
<feBlend mode="normal" in="SourceGraphic" in2="BackgroundImageFix" result="shape"/>
<feGaussianBlur stdDeviation="2.5" result="effect1_foregroundBlur"/>
</filter>
<filter id="filter4_b" x="192" y="215" width="600" height="202" filterUnits="userSpaceOnUse" color-interpolation-filters="sRGB">
<feFlood flood-opacity="0" result="BackgroundImageFix"/>
<feGaussianBlur in="BackgroundImage" stdDeviation="2"/>
<feComposite in2="SourceAlpha" operator="in" result="effect1_backgroundBlur"/>
<feBlend mode="normal" in="SourceGraphic" in2="effect1_backgroundBlur" result="shape"/>
</filter>
<filter id="filter5_b" x="152" y="529" width="383" height="131" filterUnits="userSpaceOnUse" color-interpolation-filters="sRGB">
<feFlood flood-opacity="0" result="BackgroundImageFix"/>
<feGaussianBlur in="BackgroundImage" stdDeviation="2"/>
<feComposite in2="SourceAlpha" operator="in" result="effect1_backgroundBlur"/>
<feBlend mode="normal" in="SourceGraphic" in2="effect1_backgroundBlur" result="shape"/>
</filter>
<filter id="filter6_b" x="-4" y="51" width="164" height="164" filterUnits="userSpaceOnUse" color-interpolation-filters="sRGB">
<feFlood flood-opacity="0" result="BackgroundImageFix"/>
<feGaussianBlur in="BackgroundImage" stdDeviation="2"/>
<feComposite in2="SourceAlpha" operator="in" result="effect1_backgroundBlur"/>
<feBlend mode="normal" in="SourceGraphic" in2="effect1_backgroundBlur" result="shape"/>
</filter>
</defs>
</svg>
