<svg xmlns="http://www.w3.org/2000/svg" viewBox="0 0 1630.88 786.85"><g id="Layer_2" data-name="Layer 2"><g id="Layer_1-2" data-name="Layer 1"><path d="M3.59,181.38c-7.4,37,4,77.33,29.78,104.94,11.85,12.72,26.46,22.82,37.07,36.6C107,370.37,84,439.08,95.79,497.81c8.6,42.94,37.7,81.28,76.72,101.14,79.79,40.61,181.27,2.17,263.53,37.51,41,17.62,72.28,51.54,108,78.33C630.87,780,748.69,802,853.24,772.43,958.4,742.68,1043.07,667,1134,606.35c23.47-15.66,48.57-30.78,76.6-34.07,29.16-3.43,58,6.31,86.77,12.29,109.55,22.81,229.45-12.07,309.67-90.07,8.28-8.05,16.37-16.86,20.09-27.8,9.35-27.5-11.69-55.51-32.71-75.56s-45.44-42.59-44.7-71.64c.88-34.65,37.1-58,47.09-91.18,14.54-48.26-31.88-94.82-79.72-110.64s-100.89-14.55-146.41-36.19c-57.05-27.11-104.77-89.67-167.06-79.2-32,5.39-57,29.55-84,47.66-70.51,47.32-166.24,54.26-242.83,17.6-35.44-17-67.4-42.64-105.79-50.93C709.78,3.38,649.57,36.84,592,61.44a679,679,0,0,1-165,46.89c-42.82,6.46-87.45,8.68-128.64-4.66C263.19,92.28,232.15,70.07,196.6,60,156.41,48.54,110.78,54.26,77,78.76a116.49,116.49,0,0,0-30.1,32.31C24.94,128.61,9.1,153.82,3.59,181.38Z"/><path d="M2.14,181a124.3,124.3,0,0,0,17.59,90.26c8.84,13.63,20.7,24.1,32.6,35,13.89,12.68,25.16,26.67,31.19,44.72,10.58,31.65,7,66.1,7,98.89,0,32.17,4,63.41,20.24,91.77a148.93,148.93,0,0,0,65.79,61c29.91,13.93,63.14,17.51,95.77,18.36,35.88.94,71.95-1.37,107.68,2.86,36.73,4.35,69,17.73,98.61,39.83,27.83,20.78,52.62,45.32,81.7,64.46A355,355,0,0,0,652.36,771c63.37,19.23,132.16,21.27,196.25,4.22,68.85-18.31,129.7-57.16,187.33-97.83,29.21-20.63,57.94-41.95,87.47-62.12,32.71-22.34,66.92-44.67,108.24-41.94,20.18,1.33,39.72,7,59.36,11.37a341.46,341.46,0,0,0,48.76,7.29,348.3,348.3,0,0,0,95.67-6.27c63.59-13,123.87-43.46,170.84-88.43,11-10.56,21.91-22.42,24.16-38.13,2.14-14.94-3.72-29.6-11.74-41.92-18.56-28.52-53.25-46.49-64.62-79.72-11.2-32.72,14.25-57.85,31-82.75,15.8-23.48,21-49.64,8.47-75.94-13-27.35-39.45-47.9-67-59.25-33.89-14-71.51-16.14-107-23.88-18.79-4.09-37.25-9.69-54.35-18.64-13.36-7-25.87-15.53-38.14-24.27-24.56-17.5-48.85-37.36-77.66-47.47-28.16-9.89-56.21-5.65-81.74,9.27-14.92,8.72-28.35,19.69-42.43,29.65a243.39,243.39,0,0,1-42.33,24.15c-64.54,28.44-141.55,28.28-205.34-2.17-31.42-15-59.62-36.73-93-47.52-35.12-11.35-71.81-6.3-106.21,5.12C641.87,36,607.75,54,572,68a677.46,677.46,0,0,1-112.74,33.12c-39.44,8-80.46,13.77-120.72,9.44a202.79,202.79,0,0,1-58.2-15.31c-17.4-7.44-34-16.6-51.21-24.48-30.6-14-62.79-21.42-96.44-16.11-31.9,5-61.57,21.13-81.2,47.06-9.81,13-22.58,23.07-31.66,36.77A123,123,0,0,0,2.14,181c-.4,1.88,2.5,2.68,2.9.79a120.61,120.61,0,0,1,20.3-46A122.52,122.52,0,0,1,43,116.25c6.59-5.86,10.74-13.16,16.64-19.79,23.71-26.69,59-40.16,94.24-40.63,38.26-.51,71,16.09,104.44,32.49C290.57,104.1,323,114,359.11,114.87c36.84.91,73.91-5,109.82-12.71a679.32,679.32,0,0,0,109.48-33.5C646,41.56,718.06-4.3,792.7,24.82c32.7,12.77,60.8,34.72,93.07,48.41a246.76,246.76,0,0,0,92.88,19.16A255,255,0,0,0,1072.18,76c30.62-11.61,55.33-30.48,81.89-49C1181.83,7.62,1212-3.5,1245.5,7.2c28.69,9.17,53,28.78,77.1,46.1,26.48,19,53.22,34.63,85.08,42.73,35.1,8.92,71.67,11.23,106.28,22.22,30.9,9.81,61,30.65,76,60.06,7.46,14.61,10.24,31.3,6,47.31-3.78,14.48-12.67,26.87-21.4,38.76-15.81,21.5-32.75,44.83-23.77,72.86,9.46,29.54,37.47,47,56.5,69.77,12.37,14.78,23.88,34.23,19.72,54.29-3.71,17.81-19.16,30.91-32.17,42.43A339,339,0,0,1,1513.16,557c-59.17,27.5-126.14,38.57-190.93,30.24-36.54-4.71-72.87-20.44-110.14-16.63-34.25,3.51-63.69,23.94-91.32,42.86C1063.11,653,1008.3,697,947.07,731c-60.76,33.75-126.85,54.41-196.82,52.76-67.87-1.61-135.37-22.41-191.7-60.43-28.49-19.22-52.94-43.58-80.6-63.88-27-19.84-56.46-32.63-89.7-37.55-66.31-9.82-137,6.79-200.9-17.95a146.48,146.48,0,0,1-74-63.88c-17.11-29.93-20.1-62.88-19.8-96.7.28-30.93,2.9-63.41-7.1-93.24a97.41,97.41,0,0,0-22.09-36.53c-12.31-12.89-27-23.27-37.71-37.68A121.1,121.1,0,0,1,5,181.77C5.39,179.89,2.5,179.08,2.14,181Z"/></g></g></svg>